Coordinates
version=1
nRows=6
nColumns=36
inDegrees=yes

Units are S.I. units (second, meters, Newtons, ...)
If the header above contains a line with 'inDegrees', this indicates whether rotational values are in degrees (yes) or radians (no).

endheader
time	pelvis_tilt	pelvis_list	pelvis_rotation	pelvis_tx	pelvis_ty	pelvis_tz	hip_flexion_r	hip_adduction_r	hip_rotation_r	knee_angle_r	knee_angle_r_beta	ankle_angle_r	subtalar_angle_r	mtp_angle_r	hip_flexion_l	hip_adduction_l	hip_rotation_l	knee_angle_l	knee_angle_l_beta	ankle_angle_l	subtalar_angle_l	mtp_angle_l	lumbar_extension	lumbar_bending	lumbar_rotation	arm_flex_r	arm_add_r	arm_rot_r	elbow_flex_r	pro_sup_r	arm_flex_l	arm_add_l	arm_rot_l	elbow_flex_l	pro_sup_l
      1.54166670	     -3.49729767	     -0.37447718	      0.85697363	     -0.91411558	      1.27350862	     -0.01998974	      8.85021161	      0.80229495	      0.68397123	     11.24188418	      0.19620789	     -0.32140231	    -27.60899824	     -7.49999987	      9.56122938	     -1.94820543	      9.31866321	     14.66351618	      0.25592664	      7.18893070	    -14.30023162	     -7.49999987	    -12.94060040	      0.01211228	      0.61817754	     -1.59606130	     -4.86272958	     -4.10741114	     28.43418871	     86.68025936	     -1.68210965	     -4.82867456	     -3.51517768	     27.23773791	     95.08406114
      1.54583330	     -3.49809541	     -0.37988764	      0.84763978	     -0.91393402	      1.27116358	     -0.02024325	      8.89100760	      0.79137632	      0.60498367	     11.29775064	      0.19718295	     -0.20431834	    -27.48201667	     -7.49999987	      9.60950364	     -1.94918813	      9.31282785	     14.73423746	      0.25716096	      7.32766999	    -14.15167334	     -7.49999987	    -12.96464379	      0.02439664	      0.62546423	     -1.58508739	     -4.78667608	     -4.73465597	     28.41523957	     88.81778362	     -1.64475071	     -4.73970528	     -4.00112445	     27.22653560	     96.98424345
      1.55000000	     -3.49525811	     -0.37445130	      0.80479487	     -0.91347931	      1.27226980	     -0.01987245	      8.93409941	      0.78413632	      0.68557096	     11.44749667	      0.19979651	     -0.50559238	    -27.92604568	     -7.49999987	      9.57713995	     -1.95635391	      9.26221687	     14.69981127	      0.25656011	      7.40015127	    -14.02100444	     -7.49999987	    -12.91567986	      0.02070607	      0.63827459	     -1.54386887	     -4.76457086	     -4.32359691	     28.28022965	     85.99858801	     -1.61037720	     -4.72070252	     -3.63595854	     27.09403345	     94.13998355
      1.55416670	     -3.32983476	     -0.38554109	      0.80103818	     -0.91345963	      1.27130943	     -0.01990142	      8.73749535	      0.78364322	      0.60336602	     11.44902853	      0.19982324	     -0.43717777	    -27.87224637	     -7.49999987	      9.35519622	     -1.97134632	      9.32758319	     14.63732834	      0.25546957	      7.42115522	    -14.09903316	     -7.49999987	    -13.18530764	      0.05875018	      0.61136033	     -1.50439906	     -4.80621329	     -4.44857912	     28.43573989	     88.51835521	     -1.59308236	     -4.74471455	     -3.78024643	     27.21016695	     96.75684236
      1.55833330	     -3.40872327	     -0.37883764	      0.78353929	     -0.91357023	      1.27028330	     -0.01993659	      8.89502533	      0.77200562	      0.60336998	     11.63825807	      0.20312592	     -0.61692086	    -28.26862268	     -7.49999987	      9.47408144	     -1.96946806	      9.33044899	     14.73306944	      0.25714057	      7.53732423	    -14.11496889	     -7.49999987	    -13.03506011	      0.05545110	      0.64231079	     -1.48146638	     -4.76929498	     -4.22109405	     28.26170013	     85.85044763	     -1.56387769	     -4.69464499	     -3.58606411	     27.04155296	     93.86413958
      1.56250000	     -3.25178711	     -0.37825702	      0.76246083	     -0.91385994	      1.27256235	     -0.01983190	      8.69997249	      0.77667858	      0.54899369	     11.65271272	      0.20337820	     -0.67187154	    -28.31592942	     -7.49999987	      9.23590553	     -1.98257115	      9.36448694	     14.63211310	      0.25537855	      7.49698383	    -14.17545788	     -7.49999987	    -13.25937072	      0.04174412	      0.68360933	     -1.47668610	     -4.77886533	     -3.91801102	     28.34672245	     85.23475150	     -1.51936886	     -4.73694701	     -3.27873621	     27.12858014	     93.22098919
